# xmcd
#
# Track frame offsets:
#	150
#	14697
#	28040
#	43310
#	59240
#	73070
#	87282
#	99225
#	116217
#	127210
#	148497
#	166472
#	183350
#	198430
#	210310
#	226687
#	241187
#	256650
#	271067
#	285377
#	298720
#	313142
#	328720
#
# Disc length: 4559 seconds
#
# Revision: 0
# Processed by: cddbd v1.5.2PL0 Copyright (c) Steve Scherf et al.
# Submitted via: EasyCDDAExtractor 16.0.6.1
#
DISCID=6311cd17
DTITLE=Συλλογικός δίσκος - Το μινόρε της αυγής-Αθηναϊκή κομπανία
DYEAR=1983
DGENRE=Ρεμπέτικη
TTITLE0=Σαρρής Γιώργος - Αλήτη μ' είπες μιά βραδυά [Απ. Χατζηχρήστου]
TTITLE1=Σαρρής Γιώργος-Ξηντάρης Γιώργος - Η άμαξα μέσ' στη βροχή [Απ. Χατζηχρή
TTITLE1=στου-Χαρ. Βασιλειάδη]
TTITLE2=Σαρρής Γιώργος-Ξηντάρης Γιώργος - Το κουρασμένο βήμα σου [Μπ. Μπακάλη-
TTITLE2=Κ. Βίρβου]
TTITLE3=Ξηντάρης Γιώργος - Νόστιμο τρελλό μικρό μου [Μ. Βαμβακάρη]
TTITLE4=Σαρρής Γιώργος-Ξηντάρης Γιώργος - Συννέφιασε [Γ. Μητσάκη]
TTITLE5=Ξηντάρης Γιώργος - Η Ελένη η ζωντοχήρα [Γ. Εϊζηρίδη]
TTITLE6=Σαρρής Γιώργος-Ξηντάρης Γιώργος - Η γάτα [Ν. Μάθεση]
TTITLE7=Εμφιετζή Σοφία - Μέσ' στην πολλή σκοτούρα μου [Β. Τσιτσάννη-Στρ. Παγιο
TTITLE7=υμτζή]
TTITLE8=Σαρρής Γιώργος-Ξηντάρης Γ.-Εμφιετζή Σ. - Μ' έκανες και χώρισα [Μ. Βαμβ
TTITLE8=ακάρη]
TTITLE9=Ξηντάρης Γιώργος - Πάλι τραγούδι θα σού πω [Μ. Βαμβακάρη]
TTITLE10=Σαρρής Γιώργος-Εμφιετζή Σοφία - Το μονοπάτι [Γ. Μουζάκη-Α. Σακελλάριο
TTITLE10=υ-Χρ. Γιαννακόπουλου]
TTITLE11=Ξηντάρης Γιώργος-Εμφιετζή Σοφία - Ματσάκια πεντοχίλιαρα [Μ. Βαμβακάρη
TTITLE11=]
TTITLE12=Σαρρής Γιώργος-Εμφιετζή Σοφία - Ρίξε τσιγγάνα τα χαρτιά [Μ. Βαμβακάρη
TTITLE12=]
TTITLE13=Σαρρής Γιώργος-Εμφιετζή Σοφία - Φαληριώτισσα [Γ. Παπαϊωάννου-Ευάγγ. Γ
TTITLE13=ρυπάρη]
TTITLE14=Σαρρής Γιώργος - Εγώ μάγκας φαινόμουνα [Μ. Γενίτσαρη]
TTITLE15=Ξηντάρης Γιώργος - Η καλοκαιρία [Γ. Μαλλίδη-Θ. Σοφού-Κ. Παπαδόπουλου]
TTITLE16=Σαρρής Γιώργος-Εφιετζή Σοφία - Μαύρα μάτια, μαύρα φρύδια [Μ. Βαμβακάρ
TTITLE16=η]
TTITLE17=Σαρρής Γιώργος-Εφιετζή Σοφία - Πριν το χάραμα [Γ. Παπαϊωάννου-Χαρ. Βα
TTITLE17=σιλειάδη]
TTITLE18=Εφιετζή Σοφία-Ξηντάρης Γ.-Σαρρής Γ. - Αργοσβήνεις μόνη [Β. Τσιτσάνη]
TTITLE19=Σαρρής Γιώργος-Εφιετζή Σοφία - Χρόνια στον Πειραιά [Μ. Βαμβακάρη]
TTITLE20=Σαρρής Γιώργος - Τα δυό σου χέρια πήρανε [Μ. Βαμβακάρη]
TTITLE21=Σαρρής Γιώργος-Εφιετζή Σοφία - Φαντάζεις σαν πριγκιπέσσα [Β. Τσιτσάνη
TTITLE21=]
TTITLE22=Σαρρής Γιώργος-Ξηντάρης Γ.-Εμφιετζή Σ. - Το μινόρε [καντάδα, Σ. Περισ
TTITLE22=τέρη-Μ. Μάτσα]
EXTD=
EXTT0=
EXTT1=
EXTT2=
EXTT3=
EXTT4=
EXTT5=
EXTT6=
EXTT7=
EXTT8=
EXTT9=
EXTT10=
EXTT11=
EXTT12=
EXTT13=
EXTT14=
EXTT15=
EXTT16=
EXTT17=
EXTT18=
EXTT19=
EXTT20=
EXTT21=
EXTT22=
PLAYORDER=
